<?xml version="1.0" encoding="utf-8"?>
<svg version="1.1"  xmlns="http://www.w3.org/2000/svg" xmlns:xlink="http://www.w3.org/1999/xlink" x="0px" y="0px"
	 viewBox="0 0 20 20"  xml:space="preserve">

<g id="iconamoon:close-light">
	<path class="st0" d="M14.2,14.9c-0.2,0-0.4-0.1-0.5-0.2L10,11.1l-3.6,3.6c-0.3,0.3-0.8,0.3-1.1,0s-0.3-0.8,0-1.1L8.9,10L5.3,6.4
		C5,6.1,5,5.6,5.3,5.3s0.8-0.3,1.1,0L10,8.9l3.6-3.6c0.3-0.3,0.8-0.3,1.1,0s0.3,0.8,0,1.1L11.1,10l3.6,3.6c0.3,0.3,0.3,0.8,0,1.1
		C14.6,14.8,14.4,14.9,14.2,14.9z"/>
</g>
</svg>
