<?xml version="1.0" encoding="utf-8"?>
<svg version="1.1" xmlns="http://www.w3.org/2000/svg" xmlns:xlink="http://www.w3.org/1999/xlink" x="0px" y="0px"
	 viewBox="0 0 24 24" xml:space="preserve">

<path class="st0" d="M15,1.3H9C3.6,1.3,1.2,3.6,1.2,9v6c0,5.4,2.3,7.8,7.8,7.8h1.2h4.5H15c5.4,0,7.8-2.3,7.8-7.8V9
	C22.8,3.6,20.4,1.3,15,1.3z M11.8,21.3V14h-2v-1h2V9c0-1.3,1-2.2,2.2-2.2h2.2v1.5h-2c-0.6,0-1,0.4-1,1V13h2.8l-0.2,1h-2.6v7.3H11.8z
	 M21.2,15c0,4.6-1.6,6.2-6.2,6.2h-0.2v-5.8h1.5c0.4,0,1-0.3,1-0.8l0.4-1.9l0-0.2c0-0.7-0.5-1.1-1.1-1.1h-1.8V9.8h2
	c0.6,0,1-0.4,1-1.1V6.3c0-0.6-0.4-1-1-1H14c-2.1,0-3.8,1.6-3.8,3.8v2.5h-1c-0.6,0-1,0.4-1,1v1.9c0,0.6,0.4,1,1,1h1v5.7H9
	c-4.6,0-6.2-1.6-6.2-6.2V9c0-4.6,1.6-6.2,6.2-6.2h6c4.6,0,6.2,1.6,6.2,6.2V15z"/>
</svg>
