<?xml version="1.0" encoding="utf-8"?>
<svg version="1.1" xmlns="http://www.w3.org/2000/svg" xmlns:xlink="http://www.w3.org/1999/xlink" x="0px" y="0px"
	 viewBox="0 0 24 24" xml:space="preserve">

<path class="st0" d="M15,1.3H9C3.6,1.3,1.2,3.6,1.2,9v6c0,5.4,2.3,7.8,7.8,7.8h6c5.4,0,7.8-2.3,7.8-7.8V9C22.8,3.6,20.4,1.3,15,1.3z
	 M21.2,15c0,4.6-1.6,6.2-6.2,6.2h-1v-6.6h2.2c0.1,0,0.3-0.1,0.3-0.2l0.4-1.9c0-0.2-0.1-0.4-0.3-0.4H14V9.3C14,9.1,14.1,9,14.3,9h2.4
	C16.9,9,17,8.9,17,8.7V6.3C17,6.1,16.9,6,16.7,6H14c-1.7,0-3,1.3-3,3v3.3H9.3c-0.2,0-0.3,0.1-0.3,0.3v1.9c0,0.2,0.1,0.3,0.3,0.3H11
	v6.5H9c-4.6,0-6.2-1.6-6.2-6.2V9c0-4.6,1.6-6.2,6.2-6.2h6c4.6,0,6.2,1.6,6.2,6.2V15z"/>
</svg>
