<?xml version="1.0" encoding="utf-8"?>
<svg version="1.1" xmlns="http://www.w3.org/2000/svg" xmlns:xlink="http://www.w3.org/1999/xlink" x="0px" y="0px"
	 viewBox="0 0 24 24" xml:space="preserve">

<g>
	<path class="st0" d="M15,1.3H9C3.6,1.3,1.2,3.6,1.2,9v6c0,5.4,2.3,7.8,7.8,7.8h6c5.4,0,7.8-2.3,7.8-7.8V9C22.8,3.6,20.4,1.3,15,1.3
		z M21.2,15c0,4.6-1.6,6.2-6.2,6.2H9c-4.6,0-6.2-1.6-6.2-6.2V9c0-4.6,1.6-6.2,6.2-6.2h6c4.6,0,6.2,1.6,6.2,6.2V15z"/>
	<path class="st0" d="M12,7.8c-2.3,0-4.2,1.9-4.2,4.2c0,2.3,1.9,4.2,4.2,4.2c2.3,0,4.2-1.9,4.2-4.2C16.2,9.7,14.3,7.8,12,7.8z
		 M12,14.8c-1.5,0-2.8-1.2-2.8-2.8s1.2-2.8,2.8-2.8s2.8,1.2,2.8,2.8S13.5,14.8,12,14.8z"/>
	<path class="st0" d="M17.6,6L17.6,6c-0.6,0-1,0.4-1,1s0.5,1,1,1s1-0.4,1-1S18.2,6,17.6,6z"/>
</g>
</svg>
