<?xml version="1.0" encoding="utf-8"?>
<svg version="1.1" xmlns="http://www.w3.org/2000/svg" xmlns:xlink="http://www.w3.org/1999/xlink" x="0px" y="0px"
	 viewBox="0 0 24 25" xml:space="preserve">

<path class="st0" d="M21.5,4.4c-0.8-0.5-1.8-0.4-2.9,0.2l-2.3,1.3c-0.3,0.2-0.9,0.2-1.2,0L9.9,3.3C9.1,3,8,3,7.3,3.4L2.9,5.9
	C2.1,6.4,1.5,7.4,1.5,8.3V18c0,1.2,0.5,2.1,1.3,2.6c0.8,0.5,1.8,0.4,2.9-0.2L8,19.1c0.3-0.2,0.9-0.2,1.2,0l5.3,2.6
	c0.4,0.2,0.8,0.3,1.2,0.3c0.5,0,1-0.1,1.4-0.3l4.3-2.5c0.8-0.5,1.4-1.5,1.4-2.4V7C22.8,5.8,22.3,4.9,21.5,4.4z M4.9,19.1
	c-0.5,0.3-1,0.4-1.4,0.2C3.2,19.1,3,18.6,3,18V8.3c0-0.4,0.3-0.9,0.6-1.1l4.1-2.4v12.7c0,0,0,0,0,0c-0.2,0.1-0.4,0.1-0.6,0.2
	L4.9,19.1z M9.9,17.7c-0.2-0.1-0.4-0.1-0.5-0.2c0,0,0,0,0,0V4.8l5.1,2.6c0.2,0.1,0.4,0.1,0.6,0.2v12.8L9.9,17.7z M21.2,16.7
	c0,0.4-0.3,0.9-0.6,1.1l-4.1,2.4V7.5c0.2-0.1,0.4-0.1,0.6-0.2l2.4-1.3c0.5-0.3,1-0.4,1.4-0.2c0.3,0.2,0.5,0.7,0.5,1.3V16.7z"/>
</svg>
