<?xml version="1.0" encoding="utf-8"?>
<svg version="1.1" xmlns="http://www.w3.org/2000/svg" xmlns:xlink="http://www.w3.org/1999/xlink" x="0px" y="0px"
	 viewBox="0 0 24 24" xml:space="preserve">

<g>
	<path class="st0" d="M17,3.8h2.2l-4.7,4.7c-0.3,0.3-0.3,0.8,0,1.1c0.1,0.1,0.3,0.2,0.5,0.2s0.4-0.1,0.5-0.2l4.7-4.7V7
		c0,0.4,0.3,0.8,0.8,0.8s0.8-0.3,0.8-0.8V3c0-0.1,0-0.2-0.1-0.3c-0.1-0.2-0.2-0.3-0.4-0.4c-0.1,0-0.2-0.1-0.3-0.1h-4
		c-0.4,0-0.8,0.3-0.8,0.8S16.6,3.8,17,3.8z"/>
	<path class="st0" d="M7,20.3H4.8l4.7-4.7c0.3-0.3,0.3-0.8,0-1.1s-0.8-0.3-1.1,0l-4.7,4.7V17c0-0.4-0.3-0.8-0.8-0.8S2.2,16.6,2.2,17
		v4c0,0.1,0,0.2,0.1,0.3c0.1,0.2,0.2,0.3,0.4,0.4c0.1,0,0.2,0.1,0.3,0.1h4c0.4,0,0.8-0.3,0.8-0.8S7.4,20.3,7,20.3z"/>
	<path class="st0" d="M2.9,13.9c-0.1-0.6-0.2-1.2-0.2-1.9c0-5.1,4.1-9.2,9.2-9.2c0.6,0,1.3,0.1,1.9,0.2c0.4,0.1,0.8-0.2,0.9-0.6
		c0.1-0.4-0.2-0.8-0.6-0.9c-0.7-0.1-1.4-0.2-2.2-0.2C6.1,1.3,1.2,6.1,1.2,12c0,0.7,0.1,1.4,0.2,2.1c0.1,0.4,0.4,0.6,0.7,0.6
		c0,0,0.1,0,0.2,0C2.8,14.7,3,14.3,2.9,13.9z"/>
	<path class="st0" d="M22.5,9.9c-0.1-0.4-0.5-0.7-0.9-0.6c-0.4,0.1-0.7,0.5-0.6,0.9c0.1,0.6,0.2,1.2,0.2,1.9c0,5.1-4.1,9.2-9.2,9.2
		c-0.6,0-1.3-0.1-1.9-0.2c-0.4-0.1-0.8,0.2-0.9,0.6c-0.1,0.4,0.2,0.8,0.6,0.9c0.7,0.1,1.4,0.2,2.2,0.2c5.9,0,10.8-4.8,10.8-10.8
		C22.8,11.3,22.7,10.6,22.5,9.9z"/>
</g>
</svg>
