<?xml version="1.0" encoding="utf-8"?>
<svg version="1.1" xmlns="http://www.w3.org/2000/svg" xmlns:xlink="http://www.w3.org/1999/xlink" x="0px" y="0px"
	 viewBox="0 0 24 25" xml:space="preserve">

<g>
	<path class="st0" d="M17,3.3H7C3.3,3.3,1.2,5.3,1.2,9v7c0,3.7,2.1,5.8,5.8,5.8h10c3.7,0,5.8-2.1,5.8-5.8V9
		C22.8,5.3,20.7,3.3,17,3.3z M21.2,16c0,2.9-1.4,4.2-4.2,4.2H7c-2.9,0-4.2-1.4-4.2-4.2V9c0-2.9,1.4-4.2,4.2-4.2h10
		c2.9,0,4.2,1.4,4.2,4.2V16z"/>
	<path class="st0" d="M16.5,8.9l-3.1,2.5c-0.8,0.6-2.1,0.6-2.8,0L7.5,8.9C7.1,8.7,6.7,8.7,6.4,9c-0.3,0.3-0.2,0.8,0.1,1.1l3.1,2.5
		c0.7,0.5,1.5,0.8,2.3,0.8s1.7-0.3,2.3-0.8l3.1-2.5c0.3-0.3,0.4-0.7,0.1-1.1C17.3,8.7,16.9,8.7,16.5,8.9z"/>
</g>
</svg>
